<svg xmlns="http://www.w3.org/2000/svg" viewBox="0 0 595.29 442.03"><defs><style>.cls-1{fill:#d8d8d8;}</style></defs><title>logo-light_1</title><g id="Layer_2" data-name="Layer 2"><g id="Layer_1-2" data-name="Layer 1"><path class="cls-1" d="M147.08,442c-3.59,0-7.11-.13-10.47-.38a10.2,10.2,0,0,1-8-15.34L344.11,58.82a10.2,10.2,0,1,1,17.6,10.32L155.13,421.37a126.32,126.32,0,0,0,100.29-60.8L463.94,5a10.2,10.2,0,1,1,17.6,10.32L272.94,371a146.87,146.87,0,0,1-125.86,71Z"/><path class="cls-1" d="M147.08,442c-3.59,0-7.11-.13-10.47-.38C60,436.31,0,371.87,0,295A146.49,146.49,0,0,1,42.59,191c27.62-27.79,64.72-43.09,104.49-43.09,86,0,128.6,57.91,169.78,113.93,37.06,50.41,72.07,98,137,98,27.59,0,53.5-9.82,73-27.67a10.2,10.2,0,1,1,13.79,15c-23.24,21.3-54.05,33-86.76,33-75.26,0-115-54.07-153.44-106.36-39.93-54.31-77.63-105.61-153.34-105.61C76,168.28,20.4,223.92,20.4,295c0,66.25,51.69,121.75,117.68,126.35,2.91.22,5.92.32,9,.32a126.38,126.38,0,0,0,108.34-61.05c.69-1.12,1.32-2.17,1.91-3.24a10.2,10.2,0,0,1,17.9,9.78c-.75,1.38-1.57,2.74-2.4,4.09A146.87,146.87,0,0,1,147.08,442Z"/><circle class="cls-1" cx="578.77" cy="298.11" r="16.52"/></g></g></svg>