<svg xmlns="http://www.w3.org/2000/svg" viewBox="0 0 300 222.76"><defs><style>.cls-1{fill:#781031;}</style></defs><title>logo_maroon</title><g id="Layer_2" data-name="Layer 2"><g id="Layer_1-2" data-name="Layer 1"><path class="cls-1" d="M265.5,167.4a53.72,53.72,0,0,1-31.63,13.72V22.75l8.8-15a5.14,5.14,0,0,0-8.87-5.2L158.7,130.6c-6-8.11-12-16.25-18.66-23.73l42.25-72a5.14,5.14,0,0,0-8.87-5.2L132.67,99.12c-14.75-14.29-32.78-24.6-58.55-24.6a74.12,74.12,0,0,0-5.27,148.05c1.7.13,3.47.19,5.27.19a74.74,74.74,0,0,0,12.73-1.09c1.31-.23,2.62-.49,3.92-.79a74,74,0,0,0,46.72-33.81c.33-.53.76-1.24,1.16-2l21.06-35.91c16.17,21.15,34.39,40.25,63.88,42.25v31.32h10.28V191.42A64,64,0,0,0,272.45,175a5.14,5.14,0,0,0-6.95-7.58ZM10.28,148.64c0-35.8,28-63.84,63.84-63.84,23.35,0,39.52,9.69,53.17,23.48L66.45,212A64,64,0,0,1,10.28,148.64Zm118.44,33.07a63.71,63.71,0,0,1-43.64,29.83c-1,.18-2.07.32-3.12.45l-1,.11c-.74.08-1.48.15-2.23.2l-.56,0,56.37-96.12c5.81,6.81,11.28,14.25,16.84,21.81l1.63,2.22Zm36.62-42.12,58.25-99.31V181.13C197.26,179,181.09,160.62,165.34,139.59Z"/><circle class="cls-1" cx="291.68" cy="150.23" r="8.32"/></g></g></svg>